<?xml version="1.0" encoding="UTF-8" standalone="no"?>
<!DOCTYPE svg PUBLIC "-//W3C//DTD SVG 1.1//EN" "http://www.w3.org/Graphics/SVG/1.1/DTD/svg11.dtd">
<svg width="100%" height="100%" viewBox="0 0 60 49" version="1.1" xmlns="http://www.w3.org/2000/svg" xmlns:xlink="http://www.w3.org/1999/xlink" xml:space="preserve" xmlns:serif="http://www.serif.com/" style="fill-rule:evenodd;clip-rule:evenodd;stroke-linejoin:round;stroke-miterlimit:1.41421;">
    <g transform="matrix(1,0,0,1,-361.856,-180.387)">
        <path d="M393.31,197.007C393.31,197.007 393.31,197.006 393.31,197.005C393.391,193.411 396.351,190.552 399.946,190.597C404.674,190.656 410.253,190.725 410.253,190.725C410.253,190.725 410.706,190.69 411.424,190.634C416.639,190.231 420.69,185.926 420.776,180.696C420.779,180.498 420.781,180.387 420.781,180.387L416.75,180.387C416.75,180.387 416.75,180.387 416.75,180.388C416.794,183.71 414.205,186.474 410.886,186.646C410.485,186.666 410.236,186.679 410.236,186.679L400.044,186.679C400.044,186.679 399.987,186.678 399.882,186.676C397.111,186.618 394.434,187.677 392.451,189.614C390.469,191.551 389.349,194.203 389.343,196.975C389.343,196.976 389.343,196.976 389.343,196.976L393.31,197.007Z" style="fill:rgb(129,129,129);"/>
        <path d="M379.617,215.742C379.617,215.742 379.617,217.755 379.617,219.106C379.617,219.423 379.491,219.726 379.266,219.949C379.041,220.172 378.737,220.295 378.42,220.292C377.723,220.286 376.85,220.278 376.169,220.271C375.555,220.265 375.061,219.764 375.066,219.15C375.076,217.809 375.091,215.731 375.091,215.731C375.091,215.731 373.042,215.729 371.693,215.729C371.054,215.728 370.535,215.211 370.533,214.572C370.53,213.906 370.527,213.069 370.524,212.395C370.523,212.076 370.649,211.77 370.874,211.545C371.099,211.319 371.405,211.193 371.724,211.193C373.075,211.196 375.081,211.199 375.081,211.199C375.081,211.199 375.081,209.081 375.081,207.755C375.081,207.479 375.191,207.213 375.386,207.018C375.582,206.822 375.847,206.712 376.124,206.712C376.839,206.712 377.785,206.712 378.51,206.712C379.111,206.712 379.599,207.199 379.6,207.801C379.603,209.135 379.607,211.221 379.607,211.221C379.607,211.221 381.596,211.206 382.942,211.195C383.262,211.193 383.569,211.318 383.796,211.543C384.023,211.769 384.151,212.075 384.151,212.395C384.151,213.086 384.151,213.948 384.151,214.621C384.151,215.231 383.658,215.726 383.048,215.728C381.706,215.734 379.617,215.742 379.617,215.742Z" style="fill:rgb(129,129,129);"/>
        <g transform="matrix(1.02995,0,0,1,-11.9916,0)">
            <path d="M400.779,215.756C402.018,215.726 403.006,214.713 403.005,213.473C403.003,212.234 402.012,211.223 400.773,211.197C400.768,211.197 400.766,211.197 400.766,211.197C400.766,211.197 400.756,211.197 400.736,211.198C399.525,211.264 398.577,212.265 398.578,213.477C398.578,214.69 399.526,215.69 400.737,215.756C400.746,215.756 400.75,215.756 400.75,215.756C400.75,215.756 400.76,215.756 400.779,215.756Z" style="fill:rgb(129,129,129);"/>
        </g>
        <g transform="matrix(1.02995,0,0,1,-2.87997,0)">
            <path d="M400.779,215.756C402.018,215.726 403.006,214.713 403.005,213.473C403.003,212.234 402.012,211.223 400.773,211.197C400.768,211.197 400.766,211.197 400.766,211.197C400.766,211.197 400.756,211.197 400.736,211.198C399.525,211.264 398.577,212.265 398.578,213.477C398.578,214.69 399.526,215.69 400.737,215.756C400.746,215.756 400.75,215.756 400.75,215.756C400.75,215.756 400.76,215.756 400.779,215.756Z" style="fill:rgb(129,129,129);"/>
        </g>
        <g transform="matrix(6.30663e-17,1.02995,-1,6.12323e-17,618.836,-203.875)">
            <path d="M400.779,215.756C402.018,215.726 403.006,214.713 403.005,213.473C403.003,212.234 402.012,211.223 400.773,211.197C400.768,211.197 400.766,211.197 400.766,211.197C400.766,211.197 400.756,211.197 400.736,211.198C399.525,211.264 398.577,212.265 398.578,213.477C398.578,214.69 399.526,215.69 400.737,215.756C400.746,215.756 400.75,215.756 400.75,215.756C400.75,215.756 400.76,215.756 400.779,215.756Z" style="fill:rgb(129,129,129);"/>
        </g>
        <g transform="matrix(6.30663e-17,1.02995,-1,6.12323e-17,618.836,-194.763)">
            <path d="M400.779,215.756C402.018,215.726 403.006,214.713 403.005,213.473C403.003,212.234 402.012,211.223 400.773,211.197C400.768,211.197 400.766,211.197 400.766,211.197C400.766,211.197 400.756,211.197 400.736,211.198C399.525,211.264 398.577,212.265 398.578,213.477C398.578,214.69 399.526,215.69 400.737,215.756C400.746,215.756 400.75,215.756 400.75,215.756C400.75,215.756 400.76,215.756 400.779,215.756Z" style="fill:rgb(129,129,129);"/>
        </g>
        <path d="M388.342,224.261L394.434,224.261C394.434,224.261 395.342,224.982 396.486,225.891C399.415,228.219 403.17,229.244 406.875,228.727C407.149,228.688 407.432,228.649 407.723,228.608C415.111,227.578 420.673,221.358 420.876,213.901C421.078,206.443 415.861,199.932 408.539,198.502C408.539,198.502 408.538,198.502 408.538,198.501C407.137,198.228 405.713,198.093 404.286,198.098C397.561,198.122 377.335,198.193 377.335,198.193C377.335,198.193 376.932,198.218 376.153,198.268C368.001,198.783 361.7,205.627 361.859,213.794C362.018,221.962 368.58,228.555 376.747,228.753C376.753,228.753 376.76,228.753 376.767,228.753C380.674,228.848 384.481,227.511 387.471,224.994C387.993,224.555 388.342,224.261 388.342,224.261ZM396.21,220.256L397.463,221.537C400.715,224.862 405.69,225.818 409.943,223.936C409.944,223.935 409.944,223.935 409.945,223.935C414.901,221.741 417.619,216.354 416.44,211.064C415.261,205.774 410.511,202.052 405.093,202.171C405.072,202.171 405.062,202.171 405.062,202.171C405.062,202.171 386.593,202.079 378.259,202.037C375.654,202.024 373.103,202.784 370.929,204.221C370.84,204.281 370.749,204.341 370.656,204.402C367.501,206.488 366.091,210.309 366.186,214.091C366.282,217.873 368.132,220.846 371.126,223.007C371.329,223.154 371.545,223.282 371.769,223.388C377.386,226.028 382.847,224.73 386.457,220.257L386.457,220.256L396.21,220.256Z" style="fill:rgb(129,129,129);"/>
    </g>
</svg>
