<?xml version="1.0" encoding="UTF-8" standalone="no"?>
<!DOCTYPE svg PUBLIC "-//W3C//DTD SVG 1.1//EN" "http://www.w3.org/Graphics/SVG/1.1/DTD/svg11.dtd">
<svg width="100%" height="100%" viewBox="0 0 449 353" version="1.1" xmlns="http://www.w3.org/2000/svg" xmlns:xlink="http://www.w3.org/1999/xlink" xml:space="preserve" xmlns:serif="http://www.serif.com/" style="fill-rule:evenodd;clip-rule:evenodd;stroke-linejoin:round;stroke-miterlimit:1.41421;">
    <g transform="matrix(1.00223,0,0,1,3.24185e-14,-60)">
        <path d="M448,68.105C448,63.632 444.368,60 439.895,60L8.105,60C3.632,60 0,63.632 0,68.105L0,84.314C0,88.787 3.632,92.419 8.105,92.419L439.895,92.419C444.368,92.419 448,88.787 448,84.314L448,68.105Z"/>
    </g>
    <g transform="matrix(1,0,0,1,1,260.077)">
        <path d="M448,68.105C448,63.632 444.368,60 439.895,60L8.105,60C3.632,60 0,63.632 0,68.105L0,84.314C0,88.787 3.632,92.419 8.105,92.419L439.895,92.419C444.368,92.419 448,88.787 448,84.314L448,68.105Z"/>
    </g>
    <g transform="matrix(1,0,0,1,0,99.5812)">
        <path d="M448,68.105C448,63.632 444.368,60 439.895,60L8.105,60C3.632,60 0,63.632 0,68.105L0,84.314C0,88.787 3.632,92.419 8.105,92.419L439.895,92.419C444.368,92.419 448,88.787 448,84.314L448,68.105Z"/>
    </g>
</svg>
