<?xml version="1.0" encoding="UTF-8" standalone="no"?>
<!DOCTYPE svg PUBLIC "-//W3C//DTD SVG 1.1//EN" "http://www.w3.org/Graphics/SVG/1.1/DTD/svg11.dtd">
<svg width="100%" height="100%" viewBox="0 0 55 52" version="1.1" xmlns="http://www.w3.org/2000/svg" xmlns:xlink="http://www.w3.org/1999/xlink" xml:space="preserve" xmlns:serif="http://www.serif.com/" style="fill-rule:evenodd;clip-rule:evenodd;stroke-linejoin:round;stroke-miterlimit:1.41421;">
    <g transform="matrix(1,0,0,1,-45.019,-177.296)">
        <path d="M66.096,228.579C66.096,228.579 57.298,228.579 54.159,228.579C53.553,228.579 53.062,228.088 53.062,227.483C53.061,222.637 53.055,203.383 53.055,203.383L72.1,186.573L91.149,203.375C91.149,203.375 91.163,222.66 91.167,227.492C91.167,227.78 91.053,228.057 90.849,228.261C90.645,228.464 90.368,228.579 90.08,228.579C86.94,228.579 78.08,228.579 78.08,228.579C78.08,228.579 78.102,221.073 78.111,218.087C78.112,217.768 77.985,217.463 77.76,217.238C77.534,217.013 77.228,216.887 76.91,216.889C74.561,216.901 69.401,216.929 67.17,216.941C66.582,216.944 66.108,217.421 66.107,218.009C66.104,220.879 66.096,228.579 66.096,228.579Z" style="fill:rgb(129,129,129);"/>
        <path d="M47.897,204.532L45.019,201.183L72.1,177.296L99.181,201.222L96.345,204.492L72.1,183.012L47.897,204.532Z" style="fill:rgb(129,129,129);"/>
        <path d="M59.947,184.826L53.055,191.111L53.055,180.768L59.908,180.768L59.947,184.826Z" style="fill:rgb(129,129,129);"/>
    </g>
</svg>
